<?xml version="1.0" ?>
<!DOCTYPE svg  PUBLIC '-//W3C//DTD SVG 1.1//EN'  'http://www.w3.org/Graphics/SVG/1.1/DTD/svg11.dtd'>
<svg enable-background="new 0 0 48 48" height="48px" version="1.1" viewBox="0 0 48 48" width="48px" xml:space="preserve" xmlns="http://www.w3.org/2000/svg" xmlns:xlink="http://www.w3.org/1999/xlink">
    <g id="Layer_5">
        <g>
            <path d="M46.8,9.103h-0.624H34.593V2.848V1.822V0.498h-1.324h-0.546H15.417H14.73h-1.324v1.324v0.927v6.354H1.718    H1.2H0v1.2v1.089v34.335v0.574v1.2h1.2h1.126h43.269H46.8H48v-1.2v-1.117V12.053v-1.75v-1.2H46.8z M16.055,5.227V4.613V4.471    V3.146V3.036H31.93v0.111h0.015v1.324v0.162v4.47H16.055V5.227z M45.599,12.703v1.492V42.74v1.161v1.2h-1.199h-1.924H4.441H3.6    H2.4v-1.2v-0.975V14.591v-1.888v-1.2h1.2h0.868h38.854h1.078h1.199V12.703z" fill="#9f9f9f"/>
            <polygon fill="#9f9f9f" points="26.647,19.944 21.352,19.944 21.352,26.564 14.73,26.564 14.73,31.861 21.352,31.861     21.352,38.481 26.647,38.481 26.647,31.861 33.269,31.861 33.269,26.564 26.647,26.564   "/>
        </g>
    </g>
</svg>