<?xml version="1.0" ?><!DOCTYPE svg  PUBLIC '-//W3C//DTD SVG 1.1//EN'  'http://www.w3.org/Graphics/SVG/1.1/DTD/svg11.dtd'><svg enable-background="new 0 0 139 139" height="139px" id="Setting" version="1.1" viewBox="0 0 139 139" width="139px" xml:space="preserve" xmlns="http://www.w3.org/2000/svg" xmlns:xlink="http://www.w3.org/1999/xlink"><path d="M43.563,80.854c-2.479-0.827-5.128-1.281-7.887-1.281c-13.744,0-24.89,11.14-24.89,24.889c0,2.831,0.479,5.549,1.35,8.085  l16.865-16.865l15.915,15.915l-16.64,16.641c2.338,0.728,4.823,1.116,7.401,1.119c13.748,0,24.891-11.146,24.891-24.892  c0-3.388-0.677-6.615-1.905-9.56l36.773-36.758c2.478,0.827,5.128,1.281,7.886,1.281c13.744,0,24.891-11.142,24.891-24.89  c0-2.831-0.479-5.548-1.35-8.084l-16.865,16.865L94.082,27.403l16.641-16.64c-2.338-0.727-4.823-1.118-7.401-1.119  c-13.748,0-24.891,11.144-24.891,24.891c0,3.388,0.677,6.615,1.905,9.559L43.563,80.854z"/></svg>